# xmcd CD database file
#
# Track frame offsets:
#	150
#	4008
#	20626
#	38896
#	54497
#	69583
#	84812
#	109949
#	117365
#	138406
#	147229
#	174742
#
# Disc length: 2525 seconds
#
# Revision: 0
# Processed by: cddbd v1.5.1PL0 Copyright (c) Steve Scherf et al.
# Submitted via: CDex 1.51
#
DISCID=a109db0c
DTITLE=WOODSOFT - TAKAHASHI!
DYEAR=2001
DGENRE=Game
TTITLE0=Opening Theme -Soldier Blade-
TTITLE1=Space Byway〜Into The Super Battle -Super Star Soldier-
TTITLE2=英雄伝説II オープニング
TTITLE3=Fighting Thunder -Super雷電-
TTITLE4=Stage 1 -Solder Blade-
TTITLE5=ハドソン黄金期メドレー？
TTITLE6=SOUND 4 -Dungeon Explorer-
TTITLE7=ボステーマ(仮称) -迷宮組曲-
TTITLE8=氷の塔 -風の伝説ザナドゥ-
TTITLE9=わくわく/どきどきモードENDING -Magical Chase-
TTITLE10=Returned Solder's Rest -Super Star Soldier-
TTITLE11=CD Extra
EXTD=YEAR: 2001
EXTT0=
EXTT1=
EXTT2=
EXTT3=
EXTT4=
EXTT5=
EXTT6=
EXTT7=
EXTT8=
EXTT9=
EXTT10=
EXTT11=
PLAYORDER=
